<?xml version="1.0" standalone="no"?><!DOCTYPE svg PUBLIC "-//W3C//DTD SVG 1.1//EN" "http://www.w3.org/Graphics/SVG/1.1/DTD/svg11.dtd"><svg t="1611052031079" class="icon" viewBox="0 0 1024 1024" version="1.1" xmlns="http://www.w3.org/2000/svg" p-id="6442" xmlns:xlink="http://www.w3.org/1999/xlink" width="16" height="16"><defs><style type="text/css"></style></defs><path d="M512 32c265.088 0 480 214.912 480 480 0 265.088-214.912 480-480 480-265.088 0-480-214.912-480-480C32 246.912 246.912 32 512 32z m10.88 218.176a152.32 152.32 0 0 0-152.16 147.072l-0.096 5.216v88.192a152.128 152.128 0 0 0 71.264 128.96l4.928 2.976 28.288 16.32a8.736 8.736 0 0 1 4.352 7.552l0.096 74.048c0 3.232-1.76 6.208-4.608 7.68l-179.36 95.936-34.08 18.176c14.656 10.624 25.856 18.24 33.6 23.04A412.608 412.608 0 0 0 512 926.528c84.096 0 162.336-25.056 227.68-68.096 7.136-4.672 17.472-12.224 31.04-22.528l-32.16-17.344-167.68-90.368a8.736 8.736 0 0 1-4.608-7.68l0.096-74.08c0-3.104 1.664-5.984 4.352-7.52l28.288-16.384a152.16 152.16 0 0 0 76.064-126.08l0.096-5.856v-88.16a152.256 152.256 0 0 0-152.256-152.288zM512 97.44C283.072 97.44 97.44 283.04 97.44 512c0 96 32.64 184.352 87.392 254.624 4.48 5.76 11.296 13.76 20.352 23.936 2.656 3.04 7.04 3.808 10.624 1.92l28.064-15.008 170.176-90.912v-7.328a217.632 217.632 0 0 1-108.864-188.576v-88.192a217.728 217.728 0 0 1 435.456 0v88.192a217.632 217.632 0 0 1-108.864 188.608v7.296l160 85.536 23.36 12.48c3.648 1.92 8.16 1.088 10.816-2.08 9.152-10.88 15.968-19.36 20.48-25.536A412.704 412.704 0 0 0 926.592 512c0-228.928-185.6-414.56-414.56-414.56z" p-id="6443" fill="#1ea9b1"></path></svg>