<?xml version="1.0" standalone="no"?><!DOCTYPE svg PUBLIC "-//W3C//DTD SVG 1.1//EN" "http://www.w3.org/Graphics/SVG/1.1/DTD/svg11.dtd"><svg t="1611052364693" class="icon" viewBox="0 0 1260 1024" version="1.1" xmlns="http://www.w3.org/2000/svg" p-id="11173" xmlns:xlink="http://www.w3.org/1999/xlink" width="19.6875" height="16"><defs><style type="text/css"></style></defs><path d="M1075.28019535 354.04406738v34.34072647c-1.1408882 17.17036287-12.37863388 28.63628692-29.20673065 28.63628692H974.14048129c-1.1408882 1.1408882-1.1408882 2.28177568-2.2817764 3.42266389l6.73123929 3.42266313c43.86714022 42.3269417 67.48352051 93.83803176 66.34263232 155.67415695a1201.35498047 1201.35498047 0 0 1-7.87212676 109.86750715c-3.36561965 27.4383545-10.09685821 54.93375322-22.4754921 81.2312195-5.64739532 10.26799162-12.37863388 19.45213927-24.75726777 21.73391495-5.5903511 1.1408882-6.73123857 5.70443955-6.73123857 10.26799162v45.80664979c0 21.73391495-12.37863388 34.34072647-32.5723503 34.34072647h-52.82311095c-22.47549209 0-34.85412598-12.54976729-34.85412599-35.48161467v-36.62250214c-80.94599765 5.70443955-162.97583925 9.12710342-243.92183686 9.12710343-80.94599765 0-161.83495177-3.42266388-243.92183761-9.12710343v36.62250214c0 24.01569062-12.37863388 35.48161466-34.79708175 35.48161467h-52.88015518c-20.25076065 0-32.5723503-12.54976729-32.57235031-34.34072647v-45.74960556c0-5.70443955-1.1408882-9.12710342-6.73123855-10.26799163-12.37863388-2.3388199-19.10987245-10.32503585-24.75726777-21.79095917-13.46247713-25.15657882-19.10987245-52.65197754-22.4754921-81.2312195a1203.46562345 1203.46562345 0 0 1-7.87212676-109.86750715c0-61.83612519 22.47549209-113.34721525 66.34263303-155.67415695l6.73123857-3.42266313c-1.1408882-1.1408882-1.1408882-2.28177568-2.28177568-3.42266389H191.7765897c-17.96898497 0-29.20673066-11.40887909-29.20673138-28.63628692v-34.34072646a26.24042207 26.24042207 0 0 1 26.98199993-27.4383545h17.96898425c33.71323777 0 57.32961807 38.90427782 57.32961807 38.90427782 1.1408882 4.56355135 4.50650712 9.12710342 9.01301496 15.97243116 4.50650712-14.83154297 6.73123857-26.24042207 10.09685821-37.70634611a459.15034335 459.15034335 0 0 1 66.34263231-143.0673447c21.33460389-30.86101837 51.68222275-42.3269417 85.39546051-48.03138196C496.39366429 142.35231399 557.08890129 141.21142578 618.92502721 141.21142578c60.69523772 0 122.5313629 1.1408882 183.22659987 11.40887909 33.71323777 6.90237198 64.06085664 17.22740783 85.39546053 48.08842619a501.70546341 501.70546341 0 0 1 66.34263303 143.06734471c3.36561965 11.40887909 6.73123857 22.87480314 10.09685821 37.76339034 3.42266388-6.84532775 6.73123857-11.40887909 9.01301425-16.0294754 0 0 23.61638029-38.90427782 57.32961807-38.90427782h17.96898498c15.74425353 0 26.98199922 11.40887909 26.9819992 27.4383545z m-749.73449708 36.62250214l-3.36561962 10.32503585c97.77409513-7.98621522 196.68907775-12.54976729 294.52021711-12.5497673 97.77409513 0 195.54818955 3.42266388 294.46317215 12.5497673 0-2.28177568 0-6.84532775-1.1408882-10.26799161a523.26824492 523.26824492 0 0 0-61.77908096-156.81504443c-2.28177568-3.42266388-3.42266388-4.56355135-5.64739532-6.84532774a18.31125107 18.31125107 0 0 0-6.73123856-3.42266387c-17.96898497-8.04326017-71.9329834-24.07273485-218.08072588-25.21362305-146.09069825 1.1408882-200.05469667 17.11331865-218.02368163 25.15657882-2.28177568 0-4.56355135 2.28177568-6.7882828 3.42266387a30.23352967 30.23352967 0 0 0-5.59035109 6.90237197 606.15375215 606.15375215 0 0 0-61.8361252 156.7580002z m14.60336534 234.62360078c35.93796922 0 64.06085664-29.72013017 64.06085663-65.20174412s-29.20673066-65.25878906-64.06085663-65.25878905c-34.79708174 0-64.06085664 29.7771744-64.06085664 65.25878906 0 35.48161466 28.12288741 65.20174483 64.06085664 65.20174411z m556.41103896 0c35.93796922 0 64.06085664-29.72013017 64.06085664-65.20174412s-28.06584318-65.25878906-64.06085664-65.25878905c-34.79708174 0-64.06085664 29.7771744-64.06085662 65.25878906 0 35.48161466 28.06584318 65.20174483 64.06085662 65.20174411z" p-id="11174" fill="#0e932e"></path></svg>