<?xml version="1.0" standalone="no"?><!DOCTYPE svg PUBLIC "-//W3C//DTD SVG 1.1//EN" "http://www.w3.org/Graphics/SVG/1.1/DTD/svg11.dtd"><svg t="1611110938550" class="icon" viewBox="0 0 1024 1024" version="1.1" xmlns="http://www.w3.org/2000/svg" p-id="5791" width="16" height="16" xmlns:xlink="http://www.w3.org/1999/xlink"><defs><style type="text/css"></style></defs><path d="M995.327442 659.698379a117.661165 117.661165 0 0 0-83.678282-26.309329h-65.773322V513.754686a31.498113 31.498113 0 0 0-32.521253-30.328809H531.917849V390.758574h65.773321a117.588083 117.588083 0 0 0 83.751364-26.309329 100.99859 100.99859 0 0 0 27.770958-78.12409V104.93695A100.99859 100.99859 0 0 0 681.296371 26.81286a117.588083 117.588083 0 0 0-83.751363-26.309329H403.221382a117.588083 117.588083 0 0 0-83.678281 26.309329 100.852427 100.852427 0 0 0-28.136366 78.12409v181.388205a100.852427 100.852427 0 0 0 28.136366 78.12409 117.588083 117.588083 0 0 0 83.751363 26.309329h63.653959v92.740384h-258.708399a31.498113 31.498113 0 0 0-32.521254 30.32881v119.561282h-63.580878a117.515002 117.515002 0 0 0-83.678281 26.309329A100.99859 100.99859 0 0 0 0.323245 737.822469v181.461287a100.779345 100.779345 0 0 0 28.136366 78.051009 117.515002 117.515002 0 0 0 83.678281 26.309328h194.396707a117.661165 117.661165 0 0 0 83.678282-26.309328 100.852427 100.852427 0 0 0 28.136365-78.124091v-181.388205a101.071671 101.071671 0 0 0-28.136365-78.12409 117.661165 117.661165 0 0 0-83.678282-26.309329h-65.773322V544.156577h540.072054v89.232473h-63.580878a117.734246 117.734246 0 0 0-83.751363 26.309329 101.144753 101.144753 0 0 0-28.063284 78.12409v181.461287a100.852427 100.852427 0 0 0 28.136366 78.12409 117.661165 117.661165 0 0 0 83.678281 26.236247h194.396707a117.661165 117.661165 0 0 0 83.678282-26.309328A100.779345 100.779345 0 0 0 1023.463807 919.210674v-181.388205a100.99859 100.99859 0 0 0-28.136365-78.12409z" fill="#1296db" p-id="5792"></path></svg>