<?xml version="1.0" standalone="no"?><!DOCTYPE svg PUBLIC "-//W3C//DTD SVG 1.1//EN" "http://www.w3.org/Graphics/SVG/1.1/DTD/svg11.dtd"><svg t="1611111346432" class="icon" viewBox="0 0 1024 1024" version="1.1" xmlns="http://www.w3.org/2000/svg" p-id="7632" xmlns:xlink="http://www.w3.org/1999/xlink" width="16" height="16"><defs><style type="text/css"></style></defs><path d="M925.7 413.7c0-56.9-10.3-108.6-31-160.3-20.7-46.5-51.7-93.1-87.9-129.3C729.2 41.4 620.6 0 512 0 403.4 0 294.8 41.4 217.2 124.1c-77.6 72.4-118.9 181-118.9 289.6 0 108.6 41.4 217.2 118.9 294.8 46.5 46.5 103.4 82.7 170.7 103.4L331 951.6h-72.4c-20.7 0-36.2 15.5-36.2 36.2s15.5 36.2 36.2 36.2h506.8c20.7 0 36.2-15.5 36.2-36.2s-15.5-36.2-36.2-36.2h-67.2l-56.9-144.8c25.9-10.3 51.7-20.7 77.6-36.2 129.3-72.4 206.8-212.1 206.8-356.9zM512 113.8c31 0 51.7 20.7 51.7 51.7 0 25.9-25.9 51.7-51.7 51.7-25.9 0-51.7-20.7-51.7-51.7 0-25.9 25.8-51.7 51.7-51.7z m0 589.6c-118.9 0-217.2-98.3-217.2-217.2 0-124.1 98.3-222.4 217.2-222.4 118.9 0 217.2 98.3 217.2 217.2 0 124.1-98.3 222.4-217.2 222.4z" fill="#bfbfbf" p-id="7633"></path><path d="M512 320.6c-93.1 0-165.5 72.4-165.5 165.5S418.9 651.6 512 651.6s165.5-72.4 165.5-165.5c0-93-72.4-165.5-165.5-165.5z" fill="#bfbfbf" p-id="7634"></path></svg>